<?xml version="1.0" encoding="utf-8"?>
<!-- Generator: Adobe Illustrator 26.0.2, SVG Export Plug-In . SVG Version: 6.00 Build 0)  -->
<svg version="1.1" id="Calque_1" xmlns="http://www.w3.org/2000/svg" xmlns:xlink="http://www.w3.org/1999/xlink" x="0px" y="0px"
	 viewBox="0 0 200 200" style="enable-background:new 0 0 200 200;" xml:space="preserve">
<style type="text/css">
	.st0{fill:#00B4EC;}
</style>
<g>
	<g>
		<path class="st0" d="M95,79.3H68.4c-4.1,0-7.3-3.3-7.3-7.3v-4.1c0-4,3.3-7.3,7.3-7.3h106.5c6.7,0,12.2,5.5,12.2,12.2V179
			c0,6.7-5.5,12.2-12.2,12.2h-6.8c-6.7,0-12.2-5.5-12.2-12.2V87.9c0,0,0.8-8.3-7-8.6h-43.7L95,79.3z"/>
		<path class="st0" d="M127.4,150.6h4.5c4.1,0,7.4,3.3,7.4,7.4v4.1c0,4.1-3.3,7.4-7.4,7.4h-26.5l-0.8,0H25.1
			c-6.7,0-12.2-5.5-12.2-12.2V16.5c0-6.7,5.5-12.2,12.2-12.2h6.8c6.7,0,12.2,5.5,12.2,12.2v127.3c0,0-0.8,5.7,6.5,6.8h74.2
			L127.4,150.6z"/>
	</g>
</g>
</svg>
