<?xml version="1.0" encoding="utf-8"?>
<!-- Generator: Adobe Illustrator 26.0.2, SVG Export Plug-In . SVG Version: 6.00 Build 0)  -->
<svg version="1.1" id="Calque_1" xmlns="http://www.w3.org/2000/svg" xmlns:xlink="http://www.w3.org/1999/xlink" x="0px" y="0px"
	 viewBox="0 0 747.7 463.1" style="enable-background:new 0 0 747.7 463.1;" xml:space="preserve">
<style type="text/css">
	.st0{fill:#FFFFFF;}
	.st1{fill:#262773;}
	.st2{fill:#1E2B7C;}
</style>
<g>
	<g>
		<rect x="53.9" y="83.1" class="st0" width="629.6" height="163.2"/>
	</g>
	<g>
		<path class="st1" d="M110.3,120.8h13.1v87.7h-18.9v-68.3l-15.2,3.7l-4-15.7L110.3,120.8z"/>
		<path class="st1" d="M170.4,140.3c-2.6,1.9-5.5,4.9-8.8,8.8l-13.4-10.8c2.2-2.9,4.3-5.5,6.5-7.8c2.2-2.3,4.6-4.2,7.1-5.7
			c2.5-1.5,5.3-2.7,8.4-3.5c3.1-0.8,6.6-1.2,10.4-1.2c4.6,0,8.8,0.6,12.5,1.9c3.7,1.3,6.8,3.1,9.5,5.5c2.6,2.4,4.6,5.2,6,8.5
			c1.4,3.3,2.1,7,2.1,11.1c0,3.7-0.5,6.9-1.4,9.8c-1,2.9-2.4,5.6-4.2,8.1c-1.9,2.6-4.3,5.1-7.2,7.7c-2.9,2.5-6.3,5.3-10.1,8.3
			L173.6,192h37.9v16.5h-64.4v-15.1l29-23.7c2.7-2.2,5.1-4.2,7-6c1.9-1.8,3.5-3.5,4.7-5.1c1.2-1.6,2.1-3.2,2.6-4.7
			c0.5-1.5,0.8-3.2,0.8-5c0-3.7-1.1-6.5-3.2-8.4c-2.2-1.9-5-2.9-8.5-2.9C176,137.5,173,138.4,170.4,140.3z"/>
	</g>
	<g>
		<path class="st1" d="M469.6,155.7c-7.9,0-13.7-5.8-13.7-13.2v-0.1c0-7.3,5.9-13.2,13.8-13.2c7.9,0,13.7,5.8,13.7,13.2v0.1
			C483.4,149.8,477.6,155.7,469.6,155.7z M476.3,142.5c0-3.8-2.7-7-6.7-7c-4.1,0-6.6,3.2-6.6,6.9v0.1c0,3.8,2.7,7,6.7,7
			C473.9,149.5,476.3,146.3,476.3,142.5L476.3,142.5z"/>
		<path class="st1" d="M501.6,155.7c-7.6,0-13.2-5.9-13.2-13.2v-0.1c0-7.3,5.6-13.2,13.3-13.2c4.8,0,7.8,1.6,10.2,4.3l-4.4,4.7
			c-1.6-1.7-3.2-2.8-5.8-2.8c-3.6,0-6.2,3.2-6.2,6.9v0.1c0,3.9,2.5,7,6.5,7c2.4,0,4.1-1,5.8-2.7l4.2,4.3
			C509.6,153.8,506.7,155.7,501.6,155.7z"/>
		<path class="st1" d="M526.3,155.6c-4.4,0-7.4-1.8-7.4-7.6v-12.1h-3v-6.2h3v-6.5h7.2v6.5h6v6.2h-6v10.9c0,1.7,0.7,2.5,2.3,2.5
			c1.3,0,2.5-0.3,3.6-0.9v5.8C530.4,155,528.7,155.6,526.3,155.6z"/>
		<path class="st1" d="M550.1,155.7c-7.9,0-13.7-5.8-13.7-13.2v-0.1c0-7.3,5.9-13.2,13.8-13.2c7.9,0,13.7,5.8,13.7,13.2v0.1
			C563.9,149.8,558,155.7,550.1,155.7z M556.8,142.5c0-3.8-2.7-7-6.7-7c-4.1,0-6.6,3.2-6.6,6.9v0.1c0,3.8,2.7,7,6.7,7
			C554.3,149.5,556.8,146.3,556.8,142.5L556.8,142.5z"/>
		<path class="st1" d="M585.2,155.6c-3.8,0-6.2-1.8-7.9-3.8v3.3h-7.2v-34.7h7.2v12.9c1.8-2.4,4.2-4.1,7.9-4.1
			c5.9,0,11.6,4.7,11.6,13.2v0.1C596.8,151,591.3,155.6,585.2,155.6z M589.6,142.4c0-4.2-2.8-7-6.2-7c-3.4,0-6.2,2.8-6.2,7v0.1
			c0,4.2,2.8,7,6.2,7C586.8,149.5,589.6,146.7,589.6,142.4L589.6,142.4z"/>
		<path class="st1" d="M618.1,136.8c-4.8,0-7.7,2.9-7.7,9v9.4h-7.2v-25.5h7.2v5.1c1.5-3.5,3.8-5.8,8.1-5.6v7.6H618.1z"/>
		<path class="st1" d="M646.8,144.9h-17.7c0.7,3.3,3,5,6.2,5c2.4,0,4.2-0.8,6.2-2.6l4.1,3.7c-2.4,2.9-5.8,4.7-10.4,4.7
			c-7.6,0-13.3-5.4-13.3-13.2v-0.1c0-7.3,5.2-13.2,12.6-13.2c8.5,0,12.4,6.6,12.4,13.8v0.1C646.9,143.9,646.9,144.3,646.8,144.9z
			 M634.5,135c-3,0-4.9,2.1-5.5,5.4h10.9C639.5,137.2,637.6,135,634.5,135z"/>
		<path class="st1" d="M461.8,187.8l-5.1-4.1c3.3-4.5,6.5-6.9,12.4-6.9c7.1,0,11.4,4.1,11.4,10.3c0,5.6-2.9,8.4-8.7,12.9l-5.4,4.2
			h14.5v6.3h-24.6v-5.8l11.1-9.1c4.1-3.4,5.7-5.2,5.7-8c0-2.8-1.9-4.3-4.5-4.3C466,183.3,464.3,184.8,461.8,187.8z"/>
		<path class="st1" d="M501.7,211.1c-8.9,0-14.7-7.5-14.7-17.1c0-9.7,5.9-17.2,14.8-17.2c8.9,0,14.7,7.5,14.7,17.1
			C516.5,203.5,510.6,211.1,501.7,211.1z M501.7,183.3c-4.4,0-7.2,4.4-7.2,10.5s2.9,10.6,7.3,10.6c4.4,0,7.2-4.5,7.2-10.5
			C509,187.8,506.1,183.3,501.7,183.3z"/>
		<path class="st1" d="M527.5,187.8l-5.1-4.1c3.3-4.5,6.5-6.9,12.4-6.9c7.1,0,11.4,4.1,11.4,10.3c0,5.6-2.8,8.4-8.7,12.9l-5.4,4.2
			h14.5v6.3h-24.6v-5.8l11.1-9.1c4.1-3.4,5.7-5.2,5.7-8c0-2.8-1.9-4.3-4.5-4.3C531.7,183.3,529.9,184.8,527.5,187.8z"/>
		<path class="st1" d="M553.9,183.5v-6.3h22.5v5.5l-8.4,8c4.6,0.8,8.9,3.1,8.9,9.4c0,6.3-4.6,10.9-12,10.9c-6,0-10.1-2.4-13-5.7
			l5-4.8c2.3,2.6,4.7,4,8,4c2.8,0,4.7-1.6,4.7-4.1c0-2.8-2.3-4.3-6.5-4.3h-3l-1.1-4.7l7.9-8H553.9z"/>
	</g>
	<g>
		<path class="st1" d="M275.6,209.5l-5.5-5.6c-2,1.6-4.1,2.9-6.4,3.9c-2.3,1-4.8,1.5-7.6,1.5c-2.3,0-4.4-0.3-6.4-1
			c-2-0.6-3.7-1.6-5.1-2.8c-1.4-1.2-2.6-2.7-3.4-4.4c-0.8-1.7-1.2-3.6-1.2-5.8c0-3.1,0.8-5.7,2.4-7.9c1.6-2.2,3.9-3.9,6.9-5.3
			c-1.2-1.7-2-3.3-2.6-4.8c-0.5-1.5-0.8-3.1-0.8-4.8c0-1.6,0.3-3.2,1-4.8c0.6-1.5,1.6-2.9,2.8-4c1.2-1.2,2.7-2.1,4.6-2.8
			c1.8-0.7,3.9-1.1,6.2-1.1c2.1,0,3.9,0.3,5.5,0.9c1.6,0.6,3.1,1.5,4.2,2.6c1.2,1.1,2.1,2.4,2.7,3.9c0.6,1.5,1,3.1,1,4.8
			c0,3.2-0.9,5.9-2.8,7.9c-1.9,2-4.3,3.6-7.3,4.7l6.4,6.4c0.8-1.2,1.6-2.5,2.3-3.9c0.8-1.4,1.6-2.8,2.3-4.3l7.7,4.2
			c-0.9,1.7-1.9,3.4-2.9,5.1c-1.1,1.7-2.2,3.4-3.4,5l7.1,7L275.6,209.5z M255,188.5c-1.6,0.8-2.7,1.8-3.4,2.9c-0.7,1.1-1,2.3-1,3.5
			c0,1.7,0.6,3.1,1.9,4.1c1.3,1,2.9,1.5,4.8,1.5c1.2,0,2.4-0.2,3.5-0.7c1.2-0.5,2.3-1.2,3.4-2L255,188.5z M263.5,169.1
			c-0.8-0.8-1.9-1.2-3.3-1.2c-1.4,0-2.5,0.5-3.4,1.4c-0.8,0.9-1.3,2.1-1.3,3.6c0,1.1,0.2,2.1,0.6,3c0.4,0.9,1.2,1.9,2.2,3
			c2.1-0.8,3.7-1.7,4.8-2.6c1.1-1,1.6-2.2,1.6-3.8C264.8,171,264.3,169.9,263.5,169.1z"/>
	</g>
	<g>
		<g>
			<path class="st1" d="M321.8,120.8h13.1v87.7H316v-68.3l-15.2,3.7l-4-15.7L321.8,120.8z"/>
			<path class="st1" d="M362.4,137.8v-16.4h59v14.4l-22.1,21c3,0.5,5.9,1.3,8.7,2.4c2.8,1.1,5.3,2.6,7.5,4.5
				c2.2,1.9,3.9,4.4,5.3,7.2c1.3,2.9,2,6.3,2,10.4c0,4.1-0.7,8-2.2,11.4c-1.5,3.5-3.5,6.5-6.3,9.1c-2.7,2.6-6,4.6-9.9,6
				c-3.9,1.4-8.3,2.1-13.1,2.1c-7.9,0-14.6-1.4-20.1-4.2c-5.5-2.8-10.1-6.5-13.9-11l13.2-12.6c3,3.4,6.1,6,9.4,7.8
				c3.3,1.8,7.2,2.7,11.6,2.7c3.6,0,6.6-1,8.9-2.9c2.3-1.9,3.4-4.5,3.4-7.8c0-3.6-1.5-6.4-4.4-8.3c-2.9-1.9-7.2-2.9-12.6-2.9h-8
				l-3-12.2l20.8-20.9H362.4z"/>
		</g>
	</g>
	<rect x="53.9" y="246.3" class="st1" width="629.6" height="163.2"/>
	<g>
		<g>
			<path class="st2" d="M110.9,315.8c-9.7,0-17-7.5-17-17v-0.1c0-9.4,7.1-17.1,17.3-17.1c6.2,0,10,2.1,13.1,5.1l-4.6,5.3
				c-2.6-2.3-5.2-3.7-8.5-3.7c-5.6,0-9.6,4.6-9.6,10.3v0.1c0,5.7,3.9,10.4,9.6,10.4c3.8,0,6.1-1.5,8.7-3.9l4.6,4.7
				C121.1,313.5,117.3,315.8,110.9,315.8z"/>
			<path class="st2" d="M130.6,287v-6.4h7.6v6.4H130.6z M130.8,315.2v-25.4h7.2v25.4H130.8z"/>
			<path class="st2" d="M154.3,315.6c-4.4,0-7.4-1.7-7.4-7.6v-12h-3v-6.2h3v-6.5h7.2v6.5h6v6.2h-6v10.8c0,1.7,0.7,2.5,2.3,2.5
				c1.3,0,2.5-0.3,3.6-0.9v5.8C158.5,315,156.7,315.6,154.3,315.6z"/>
			<path class="st2" d="M189.9,305h-17.7c0.7,3.3,3,5,6.2,5c2.4,0,4.2-0.8,6.2-2.6l4.1,3.6c-2.4,2.9-5.8,4.7-10.4,4.7
				c-7.6,0-13.3-5.3-13.3-13.1v-0.1c0-7.2,5.2-13.2,12.5-13.2c8.5,0,12.4,6.6,12.4,13.8v0.1C190,303.9,189.9,304.3,189.9,305z
				 M177.6,295.1c-3,0-4.9,2.1-5.5,5.4H183C182.5,297.3,180.7,295.1,177.6,295.1z M174.7,287l5.3-8.4l6.2,2.7l-6.1,5.7H174.7z"/>
			<path class="st2" d="M211.5,287v-6.4h7.6v6.4H211.5z M211.7,315.2v-25.4h7.2v25.4H211.7z"/>
			<path class="st2" d="M242.7,315.2V301c0-3.4-1.6-5.2-4.4-5.2s-4.5,1.8-4.5,5.2v14.1h-7.2v-25.4h7.2v3.6c1.7-2.1,3.8-4.1,7.4-4.1
				c5.4,0,8.6,3.6,8.6,9.4v16.4H242.7z"/>
			<path class="st2" d="M265.6,315.6c-4.4,0-7.4-1.7-7.4-7.6v-12h-3v-6.2h3v-6.5h7.2v6.5h6v6.2h-6v10.8c0,1.7,0.7,2.5,2.3,2.5
				c1.3,0,2.5-0.3,3.6-0.9v5.8C269.8,315,268,315.6,265.6,315.6z"/>
			<path class="st2" d="M300.5,305h-17.7c0.7,3.3,3,5,6.2,5c2.4,0,4.2-0.8,6.2-2.6l4.1,3.6c-2.4,2.9-5.8,4.7-10.4,4.7
				c-7.6,0-13.3-5.3-13.3-13.1v-0.1c0-7.2,5.2-13.2,12.5-13.2c8.5,0,12.4,6.6,12.4,13.8v0.1C300.6,303.9,300.5,304.3,300.5,305z
				 M288.2,295.1c-3,0-4.9,2.1-5.5,5.4h10.8C293.1,297.3,291.3,295.1,288.2,295.1z"/>
			<path class="st2" d="M321.8,296.9c-4.8,0-7.7,2.9-7.7,8.9v9.4h-7.2v-25.4h7.2v5.1c1.5-3.5,3.8-5.8,8.1-5.6v7.5H321.8z"/>
			<path class="st2" d="M343.6,315.2V301c0-3.4-1.6-5.2-4.4-5.2s-4.5,1.8-4.5,5.2v14.1h-7.2v-25.4h7.2v3.6c1.7-2.1,3.8-4.1,7.4-4.1
				c5.4,0,8.6,3.6,8.6,9.4v16.4H343.6z"/>
			<path class="st2" d="M372.9,315.2v-2.7c-1.7,1.9-4.2,3.2-7.7,3.2c-4.8,0-8.7-2.7-8.7-7.8v-0.1c0-5.5,4.2-8.1,10.2-8.1
				c2.6,0,4.4,0.4,6.2,1v-0.4c0-3-1.8-4.6-5.4-4.6c-2.7,0-4.7,0.5-7,1.4l-1.8-5.5c2.8-1.2,5.5-2,9.8-2c7.9,0,11.3,4.1,11.3,10.9
				v14.7H372.9z M373,305c-1.2-0.6-2.8-0.9-4.6-0.9c-3.1,0-5,1.2-5,3.5v0.1c0,1.9,1.6,3.1,3.9,3.1c3.4,0,5.6-1.8,5.6-4.4V305z"/>
			<path class="st2" d="M395.3,315.6c-4.4,0-7.4-1.7-7.4-7.6v-12h-3v-6.2h3v-6.5h7.2v6.5h6v6.2h-6v10.8c0,1.7,0.7,2.5,2.3,2.5
				c1.3,0,2.5-0.3,3.6-0.9v5.8C399.4,315,397.7,315.6,395.3,315.6z"/>
			<path class="st2" d="M407.4,287v-6.4h7.6v6.4H407.4z M407.6,315.2v-25.4h7.2v25.4H407.6z"/>
			<path class="st2" d="M435,315.8c-7.9,0-13.7-5.8-13.7-13.1v-0.1c0-7.3,5.9-13.2,13.8-13.2c7.9,0,13.7,5.8,13.7,13.1v0.1
				C448.7,309.8,442.9,315.8,435,315.8z M441.6,302.5c0-3.7-2.7-7-6.7-7c-4.1,0-6.6,3.2-6.6,6.9v0.1c0,3.7,2.7,7,6.7,7
				C439.2,309.6,441.6,306.4,441.6,302.5L441.6,302.5z"/>
			<path class="st2" d="M470.9,315.2V301c0-3.4-1.6-5.2-4.4-5.2s-4.5,1.8-4.5,5.2v14.1h-7.2v-25.4h7.2v3.6c1.7-2.1,3.8-4.1,7.4-4.1
				c5.4,0,8.6,3.6,8.6,9.4v16.4H470.9z"/>
			<path class="st2" d="M500.2,315.2v-2.7c-1.7,1.9-4.2,3.2-7.7,3.2c-4.8,0-8.7-2.7-8.7-7.8v-0.1c0-5.5,4.2-8.1,10.2-8.1
				c2.6,0,4.4,0.4,6.2,1v-0.4c0-3-1.8-4.6-5.4-4.6c-2.7,0-4.7,0.5-7,1.4l-1.8-5.5c2.8-1.2,5.5-2,9.8-2c7.9,0,11.3,4.1,11.3,10.9
				v14.7H500.2z M500.3,305c-1.2-0.6-2.8-0.9-4.6-0.9c-3.1,0-5,1.2-5,3.5v0.1c0,1.9,1.6,3.1,3.9,3.1c3.4,0,5.6-1.8,5.6-4.4V305z"/>
			<path class="st2" d="M514.6,315.2v-34.5h7.2v34.5H514.6z"/>
			<path class="st2" d="M553,305h-17.7c0.7,3.3,3,5,6.2,5c2.4,0,4.2-0.8,6.2-2.6l4.1,3.6c-2.4,2.9-5.8,4.7-10.4,4.7
				c-7.6,0-13.3-5.3-13.3-13.1v-0.1c0-7.2,5.2-13.2,12.5-13.2c8.5,0,12.4,6.6,12.4,13.8v0.1C553.1,303.9,553.1,304.3,553,305z
				 M540.8,295.1c-3,0-4.9,2.1-5.5,5.4h10.8C545.7,297.3,543.8,295.1,540.8,295.1z"/>
			<path class="st2" d="M110.5,372v-3.6c-1.7,2.1-3.8,4.1-7.4,4.1c-5.4,0-8.6-3.6-8.6-9.4v-16.4h7.2v14.1c0,3.4,1.6,5.2,4.4,5.2
				s4.5-1.8,4.5-5.2v-14.1h7.2V372H110.5z"/>
			<path class="st2" d="M141.1,372v-14.1c0-3.4-1.6-5.2-4.4-5.2c-2.7,0-4.5,1.8-4.5,5.2V372h-7.2v-25.4h7.2v3.6
				c1.7-2.1,3.8-4.1,7.4-4.1c5.4,0,8.6,3.6,8.6,9.4V372H141.1z"/>
			<path class="st2" d="M155.6,343.8v-6.4h7.6v6.4H155.6z M155.8,372v-25.4h7.2V372H155.8z"/>
			<path class="st2" d="M185,372.1h-6.5l-10-25.6h7.6l5.7,17l5.7-17h7.5L185,372.1z"/>
			<path class="st2" d="M222.2,361.8h-17.7c0.7,3.3,3,5,6.2,5c2.4,0,4.2-0.8,6.2-2.6l4.1,3.6c-2.4,2.9-5.8,4.7-10.4,4.7
				c-7.6,0-13.3-5.3-13.3-13.1v-0.1c0-7.2,5.2-13.2,12.5-13.2c8.5,0,12.4,6.6,12.4,13.8v0.1C222.3,360.7,222.2,361.1,222.2,361.8z
				 M209.9,351.9c-3,0-4.9,2.1-5.5,5.4h10.8C214.9,354.1,213,351.9,209.9,351.9z"/>
			<path class="st2" d="M243.5,353.6c-4.8,0-7.7,2.9-7.7,8.9v9.4h-7.2v-25.4h7.2v5.1c1.5-3.5,3.8-5.8,8.1-5.6v7.5H243.5z"/>
			<path class="st2" d="M258.2,372.4c-3.5,0-7.5-1.2-10.9-3.8l3.1-4.7c2.7,2,5.6,3,8,3c2.1,0,3-0.8,3-1.9v-0.1
				c0-1.6-2.5-2.1-5.3-2.9c-3.5-1-7.6-2.7-7.6-7.6v-0.1c0-5.2,4.2-8,9.3-8c3.2,0,6.7,1.1,9.5,2.9l-2.7,5c-2.5-1.5-5-2.4-6.9-2.4
				c-1.8,0-2.7,0.8-2.7,1.8v0.1c0,1.4,2.4,2.1,5.2,3c3.5,1.2,7.7,2.9,7.7,7.5v0.1C267.9,369.9,263.7,372.4,258.2,372.4z"/>
			<path class="st2" d="M274.1,343.8v-6.4h7.6v6.4H274.1z M274.3,372v-25.4h7.2V372H274.3z"/>
			<path class="st2" d="M297.8,372.4c-4.4,0-7.4-1.7-7.4-7.6v-12h-3v-6.2h3v-6.5h7.2v6.5h6v6.2h-6v10.8c0,1.7,0.7,2.5,2.3,2.5
				c1.3,0,2.5-0.3,3.6-0.9v5.8C301.9,371.8,300.2,372.4,297.8,372.4z"/>
			<path class="st2" d="M324.7,372v-2.7c-1.7,1.9-4.2,3.2-7.7,3.2c-4.8,0-8.7-2.7-8.7-7.8v-0.1c0-5.5,4.2-8.1,10.2-8.1
				c2.6,0,4.4,0.4,6.2,1v-0.4c0-3-1.8-4.6-5.4-4.6c-2.7,0-4.7,0.5-7,1.4l-1.8-5.5c2.8-1.2,5.5-2,9.8-2c7.9,0,11.3,4.1,11.3,10.9V372
				H324.7z M324.8,361.7c-1.2-0.6-2.8-0.9-4.6-0.9c-3.1,0-5,1.2-5,3.5v0.1c0,1.9,1.6,3.1,3.9,3.1c3.4,0,5.6-1.8,5.6-4.4V361.7z"/>
			<path class="st2" d="M338.9,343.8v-6.4h7.6v6.4H338.9z M339.1,372v-25.4h7.2V372H339.1z"/>
			<path class="st2" d="M368.9,353.6c-4.8,0-7.7,2.9-7.7,8.9v9.4H354v-25.4h7.2v5.1c1.5-3.5,3.8-5.8,8.1-5.6v7.5H368.9z"/>
			<path class="st2" d="M397.6,361.8h-17.7c0.7,3.3,3,5,6.2,5c2.4,0,4.2-0.8,6.2-2.6l4.1,3.6c-2.4,2.9-5.8,4.7-10.4,4.7
				c-7.6,0-13.3-5.3-13.3-13.1v-0.1c0-7.2,5.2-13.2,12.5-13.2c8.5,0,12.4,6.6,12.4,13.8v0.1C397.6,360.7,397.6,361.1,397.6,361.8z
				 M385.3,351.9c-3,0-4.9,2.1-5.5,5.4h10.8C390.2,354.1,388.3,351.9,385.3,351.9z"/>
			<path class="st2" d="M437.4,372v-3.6c-1.8,2.4-4.2,4.1-7.9,4.1c-5.9,0-11.5-4.6-11.5-13.1v-0.1c0-8.5,5.5-13.1,11.5-13.1
				c3.8,0,6.2,1.7,7.9,3.8v-12.5h7.2V372H437.4z M437.5,359.2c0-4.2-2.8-7-6.2-7c-3.4,0-6.2,2.7-6.2,7v0.1c0,4.2,2.8,7,6.2,7
				C434.7,366.3,437.5,363.5,437.5,359.2L437.5,359.2z"/>
			<path class="st2" d="M475.5,361.8h-17.7c0.7,3.3,3,5,6.2,5c2.4,0,4.2-0.8,6.2-2.6l4.1,3.6c-2.4,2.9-5.8,4.7-10.4,4.7
				c-7.6,0-13.3-5.3-13.3-13.1v-0.1c0-7.2,5.2-13.2,12.5-13.2c8.5,0,12.4,6.6,12.4,13.8v0.1C475.6,360.7,475.6,361.1,475.5,361.8z
				 M463.3,351.9c-3,0-4.9,2.1-5.5,5.4h10.8C468.2,354.1,466.3,351.9,463.3,351.9z"/>
			<path class="st2" d="M510.6,362h-5.5v9.9h-7.3v-33.1h13.5c7.9,0,12.7,4.7,12.7,11.5v0.1C524,358,518,362,510.6,362z M516.6,350.4
				c0-3.3-2.3-5-5.9-5h-5.6v10.1h5.8C514.5,355.5,516.6,353.4,516.6,350.4L516.6,350.4z"/>
			<path class="st2" d="M544,372v-2.7c-1.7,1.9-4.2,3.2-7.7,3.2c-4.8,0-8.7-2.7-8.7-7.8v-0.1c0-5.5,4.2-8.1,10.2-8.1
				c2.6,0,4.4,0.4,6.2,1v-0.4c0-3-1.8-4.6-5.4-4.6c-2.7,0-4.7,0.5-7,1.4l-1.8-5.5c2.8-1.2,5.5-2,9.8-2c7.9,0,11.3,4.1,11.3,10.9V372
				H544z M544.1,361.7c-1.2-0.6-2.8-0.9-4.6-0.9c-3.1,0-5,1.2-5,3.5v0.1c0,1.9,1.6,3.1,3.9,3.1c3.4,0,5.6-1.8,5.6-4.4V361.7z"/>
			<path class="st2" d="M573,353.6c-4.8,0-7.7,2.9-7.7,8.9v9.4h-7.2v-25.4h7.2v5.1c1.5-3.5,3.8-5.8,8.1-5.6v7.5H573z"/>
			<path class="st2" d="M578.9,343.8v-6.4h7.6v6.4H578.9z M579.1,372v-25.4h7.2V372H579.1z"/>
			<path class="st2" d="M602.9,372.4c-3.5,0-7.5-1.2-10.9-3.8l3.1-4.7c2.7,2,5.6,3,8,3c2.1,0,3-0.8,3-1.9v-0.1
				c0-1.6-2.5-2.1-5.3-2.9c-3.5-1-7.6-2.7-7.6-7.6v-0.1c0-5.2,4.2-8,9.3-8c3.2,0,6.7,1.1,9.5,2.9l-2.7,5c-2.5-1.5-5-2.4-6.9-2.4
				c-1.8,0-2.7,0.8-2.7,1.8v0.1c0,1.4,2.4,2.1,5.2,3c3.5,1.2,7.7,2.9,7.7,7.5v0.1C612.6,369.9,608.4,372.4,602.9,372.4z"/>
		</g>
		<g>
			<path class="st0" d="M110.9,315.8c-9.7,0-17-7.5-17-17v-0.1c0-9.4,7.1-17.1,17.3-17.1c6.2,0,10,2.1,13.1,5.1l-4.6,5.3
				c-2.6-2.3-5.2-3.7-8.5-3.7c-5.6,0-9.6,4.6-9.6,10.3v0.1c0,5.7,3.9,10.4,9.6,10.4c3.8,0,6.1-1.5,8.7-3.9l4.6,4.7
				C121.1,313.5,117.3,315.8,110.9,315.8z"/>
			<path class="st0" d="M130.6,287v-6.4h7.6v6.4H130.6z M130.8,315.2v-25.4h7.2v25.4H130.8z"/>
			<path class="st0" d="M154.3,315.6c-4.4,0-7.4-1.7-7.4-7.6v-12h-3v-6.2h3v-6.5h7.2v6.5h6v6.2h-6v10.8c0,1.7,0.7,2.5,2.3,2.5
				c1.3,0,2.5-0.3,3.6-0.9v5.8C158.5,315,156.7,315.6,154.3,315.6z"/>
			<path class="st0" d="M189.9,305h-17.7c0.7,3.3,3,5,6.2,5c2.4,0,4.2-0.8,6.2-2.6l4.1,3.6c-2.4,2.9-5.8,4.7-10.4,4.7
				c-7.6,0-13.3-5.3-13.3-13.1v-0.1c0-7.2,5.2-13.2,12.5-13.2c8.5,0,12.4,6.6,12.4,13.8v0.1C190,303.9,189.9,304.3,189.9,305z
				 M177.6,295.1c-3,0-4.9,2.1-5.5,5.4H183C182.5,297.3,180.7,295.1,177.6,295.1z M174.7,287l5.3-8.4l6.2,2.7l-6.1,5.7H174.7z"/>
			<path class="st0" d="M211.5,287v-6.4h7.6v6.4H211.5z M211.7,315.2v-25.4h7.2v25.4H211.7z"/>
			<path class="st0" d="M242.7,315.2V301c0-3.4-1.6-5.2-4.4-5.2s-4.5,1.8-4.5,5.2v14.1h-7.2v-25.4h7.2v3.6c1.7-2.1,3.8-4.1,7.4-4.1
				c5.4,0,8.6,3.6,8.6,9.4v16.4H242.7z"/>
			<path class="st0" d="M265.6,315.6c-4.4,0-7.4-1.7-7.4-7.6v-12h-3v-6.2h3v-6.5h7.2v6.5h6v6.2h-6v10.8c0,1.7,0.7,2.5,2.3,2.5
				c1.3,0,2.5-0.3,3.6-0.9v5.8C269.8,315,268,315.6,265.6,315.6z"/>
			<path class="st0" d="M300.5,305h-17.7c0.7,3.3,3,5,6.2,5c2.4,0,4.2-0.8,6.2-2.6l4.1,3.6c-2.4,2.9-5.8,4.7-10.4,4.7
				c-7.6,0-13.3-5.3-13.3-13.1v-0.1c0-7.2,5.2-13.2,12.5-13.2c8.5,0,12.4,6.6,12.4,13.8v0.1C300.6,303.9,300.5,304.3,300.5,305z
				 M288.2,295.1c-3,0-4.9,2.1-5.5,5.4h10.8C293.1,297.3,291.3,295.1,288.2,295.1z"/>
			<path class="st0" d="M321.8,296.9c-4.8,0-7.7,2.9-7.7,8.9v9.4h-7.2v-25.4h7.2v5.1c1.5-3.5,3.8-5.8,8.1-5.6v7.5H321.8z"/>
			<path class="st0" d="M343.6,315.2V301c0-3.4-1.6-5.2-4.4-5.2s-4.5,1.8-4.5,5.2v14.1h-7.2v-25.4h7.2v3.6c1.7-2.1,3.8-4.1,7.4-4.1
				c5.4,0,8.6,3.6,8.6,9.4v16.4H343.6z"/>
			<path class="st0" d="M372.9,315.2v-2.7c-1.7,1.9-4.2,3.2-7.7,3.2c-4.8,0-8.7-2.7-8.7-7.8v-0.1c0-5.5,4.2-8.1,10.2-8.1
				c2.6,0,4.4,0.4,6.2,1v-0.4c0-3-1.8-4.6-5.4-4.6c-2.7,0-4.7,0.5-7,1.4l-1.8-5.5c2.8-1.2,5.5-2,9.8-2c7.9,0,11.3,4.1,11.3,10.9
				v14.7H372.9z M373,305c-1.2-0.6-2.8-0.9-4.6-0.9c-3.1,0-5,1.2-5,3.5v0.1c0,1.9,1.6,3.1,3.9,3.1c3.4,0,5.6-1.8,5.6-4.4V305z"/>
			<path class="st0" d="M395.3,315.6c-4.4,0-7.4-1.7-7.4-7.6v-12h-3v-6.2h3v-6.5h7.2v6.5h6v6.2h-6v10.8c0,1.7,0.7,2.5,2.3,2.5
				c1.3,0,2.5-0.3,3.6-0.9v5.8C399.4,315,397.7,315.6,395.3,315.6z"/>
			<path class="st0" d="M407.4,287v-6.4h7.6v6.4H407.4z M407.6,315.2v-25.4h7.2v25.4H407.6z"/>
			<path class="st0" d="M435,315.8c-7.9,0-13.7-5.8-13.7-13.1v-0.1c0-7.3,5.9-13.2,13.8-13.2c7.9,0,13.7,5.8,13.7,13.1v0.1
				C448.7,309.8,442.9,315.8,435,315.8z M441.6,302.5c0-3.7-2.7-7-6.7-7c-4.1,0-6.6,3.2-6.6,6.9v0.1c0,3.7,2.7,7,6.7,7
				C439.2,309.6,441.6,306.4,441.6,302.5L441.6,302.5z"/>
			<path class="st0" d="M470.9,315.2V301c0-3.4-1.6-5.2-4.4-5.2s-4.5,1.8-4.5,5.2v14.1h-7.2v-25.4h7.2v3.6c1.7-2.1,3.8-4.1,7.4-4.1
				c5.4,0,8.6,3.6,8.6,9.4v16.4H470.9z"/>
			<path class="st0" d="M500.2,315.2v-2.7c-1.7,1.9-4.2,3.2-7.7,3.2c-4.8,0-8.7-2.7-8.7-7.8v-0.1c0-5.5,4.2-8.1,10.2-8.1
				c2.6,0,4.4,0.4,6.2,1v-0.4c0-3-1.8-4.6-5.4-4.6c-2.7,0-4.7,0.5-7,1.4l-1.8-5.5c2.8-1.2,5.5-2,9.8-2c7.9,0,11.3,4.1,11.3,10.9
				v14.7H500.2z M500.3,305c-1.2-0.6-2.8-0.9-4.6-0.9c-3.1,0-5,1.2-5,3.5v0.1c0,1.9,1.6,3.1,3.9,3.1c3.4,0,5.6-1.8,5.6-4.4V305z"/>
			<path class="st0" d="M514.6,315.2v-34.5h7.2v34.5H514.6z"/>
			<path class="st0" d="M553,305h-17.7c0.7,3.3,3,5,6.2,5c2.4,0,4.2-0.8,6.2-2.6l4.1,3.6c-2.4,2.9-5.8,4.7-10.4,4.7
				c-7.6,0-13.3-5.3-13.3-13.1v-0.1c0-7.2,5.2-13.2,12.5-13.2c8.5,0,12.4,6.6,12.4,13.8v0.1C553.1,303.9,553.1,304.3,553,305z
				 M540.8,295.1c-3,0-4.9,2.1-5.5,5.4h10.8C545.7,297.3,543.8,295.1,540.8,295.1z"/>
			<path class="st0" d="M110.5,372v-3.6c-1.7,2.1-3.8,4.1-7.4,4.1c-5.4,0-8.6-3.6-8.6-9.4v-16.4h7.2v14.1c0,3.4,1.6,5.2,4.4,5.2
				s4.5-1.8,4.5-5.2v-14.1h7.2V372H110.5z"/>
			<path class="st0" d="M141.1,372v-14.1c0-3.4-1.6-5.2-4.4-5.2c-2.7,0-4.5,1.8-4.5,5.2V372h-7.2v-25.4h7.2v3.6
				c1.7-2.1,3.8-4.1,7.4-4.1c5.4,0,8.6,3.6,8.6,9.4V372H141.1z"/>
			<path class="st0" d="M155.6,343.8v-6.4h7.6v6.4H155.6z M155.8,372v-25.4h7.2V372H155.8z"/>
			<path class="st0" d="M185,372.1h-6.5l-10-25.6h7.6l5.7,17l5.7-17h7.5L185,372.1z"/>
			<path class="st0" d="M222.2,361.8h-17.7c0.7,3.3,3,5,6.2,5c2.4,0,4.2-0.8,6.2-2.6l4.1,3.6c-2.4,2.9-5.8,4.7-10.4,4.7
				c-7.6,0-13.3-5.3-13.3-13.1v-0.1c0-7.2,5.2-13.2,12.5-13.2c8.5,0,12.4,6.6,12.4,13.8v0.1C222.3,360.7,222.2,361.1,222.2,361.8z
				 M209.9,351.9c-3,0-4.9,2.1-5.5,5.4h10.8C214.9,354.1,213,351.9,209.9,351.9z"/>
			<path class="st0" d="M243.5,353.6c-4.8,0-7.7,2.9-7.7,8.9v9.4h-7.2v-25.4h7.2v5.1c1.5-3.5,3.8-5.8,8.1-5.6v7.5H243.5z"/>
			<path class="st0" d="M258.2,372.4c-3.5,0-7.5-1.2-10.9-3.8l3.1-4.7c2.7,2,5.6,3,8,3c2.1,0,3-0.8,3-1.9v-0.1
				c0-1.6-2.5-2.1-5.3-2.9c-3.5-1-7.6-2.7-7.6-7.6v-0.1c0-5.2,4.2-8,9.3-8c3.2,0,6.7,1.1,9.5,2.9l-2.7,5c-2.5-1.5-5-2.4-6.9-2.4
				c-1.8,0-2.7,0.8-2.7,1.8v0.1c0,1.4,2.4,2.1,5.2,3c3.5,1.2,7.7,2.9,7.7,7.5v0.1C267.9,369.9,263.7,372.4,258.2,372.4z"/>
			<path class="st0" d="M274.1,343.8v-6.4h7.6v6.4H274.1z M274.3,372v-25.4h7.2V372H274.3z"/>
			<path class="st0" d="M297.8,372.4c-4.4,0-7.4-1.7-7.4-7.6v-12h-3v-6.2h3v-6.5h7.2v6.5h6v6.2h-6v10.8c0,1.7,0.7,2.5,2.3,2.5
				c1.3,0,2.5-0.3,3.6-0.9v5.8C301.9,371.8,300.2,372.4,297.8,372.4z"/>
			<path class="st0" d="M324.7,372v-2.7c-1.7,1.9-4.2,3.2-7.7,3.2c-4.8,0-8.7-2.7-8.7-7.8v-0.1c0-5.5,4.2-8.1,10.2-8.1
				c2.6,0,4.4,0.4,6.2,1v-0.4c0-3-1.8-4.6-5.4-4.6c-2.7,0-4.7,0.5-7,1.4l-1.8-5.5c2.8-1.2,5.5-2,9.8-2c7.9,0,11.3,4.1,11.3,10.9V372
				H324.7z M324.8,361.7c-1.2-0.6-2.8-0.9-4.6-0.9c-3.1,0-5,1.2-5,3.5v0.1c0,1.9,1.6,3.1,3.9,3.1c3.4,0,5.6-1.8,5.6-4.4V361.7z"/>
			<path class="st0" d="M338.9,343.8v-6.4h7.6v6.4H338.9z M339.1,372v-25.4h7.2V372H339.1z"/>
			<path class="st0" d="M368.9,353.6c-4.8,0-7.7,2.9-7.7,8.9v9.4H354v-25.4h7.2v5.1c1.5-3.5,3.8-5.8,8.1-5.6v7.5H368.9z"/>
			<path class="st0" d="M397.6,361.8h-17.7c0.7,3.3,3,5,6.2,5c2.4,0,4.2-0.8,6.2-2.6l4.1,3.6c-2.4,2.9-5.8,4.7-10.4,4.7
				c-7.6,0-13.3-5.3-13.3-13.1v-0.1c0-7.2,5.2-13.2,12.5-13.2c8.5,0,12.4,6.6,12.4,13.8v0.1C397.6,360.7,397.6,361.1,397.6,361.8z
				 M385.3,351.9c-3,0-4.9,2.1-5.5,5.4h10.8C390.2,354.1,388.3,351.9,385.3,351.9z"/>
			<path class="st0" d="M437.4,372v-3.6c-1.8,2.4-4.2,4.1-7.9,4.1c-5.9,0-11.5-4.6-11.5-13.1v-0.1c0-8.5,5.5-13.1,11.5-13.1
				c3.8,0,6.2,1.7,7.9,3.8v-12.5h7.2V372H437.4z M437.5,359.2c0-4.2-2.8-7-6.2-7c-3.4,0-6.2,2.7-6.2,7v0.1c0,4.2,2.8,7,6.2,7
				C434.7,366.3,437.5,363.5,437.5,359.2L437.5,359.2z"/>
			<path class="st0" d="M475.5,361.8h-17.7c0.7,3.3,3,5,6.2,5c2.4,0,4.2-0.8,6.2-2.6l4.1,3.6c-2.4,2.9-5.8,4.7-10.4,4.7
				c-7.6,0-13.3-5.3-13.3-13.1v-0.1c0-7.2,5.2-13.2,12.5-13.2c8.5,0,12.4,6.6,12.4,13.8v0.1C475.6,360.7,475.6,361.1,475.5,361.8z
				 M463.3,351.9c-3,0-4.9,2.1-5.5,5.4h10.8C468.2,354.1,466.3,351.9,463.3,351.9z"/>
			<path class="st0" d="M510.6,362h-5.5v9.9h-7.3v-33.1h13.5c7.9,0,12.7,4.7,12.7,11.5v0.1C524,358,518,362,510.6,362z M516.6,350.4
				c0-3.3-2.3-5-5.9-5h-5.6v10.1h5.8C514.5,355.5,516.6,353.4,516.6,350.4L516.6,350.4z"/>
			<path class="st0" d="M544,372v-2.7c-1.7,1.9-4.2,3.2-7.7,3.2c-4.8,0-8.7-2.7-8.7-7.8v-0.1c0-5.5,4.2-8.1,10.2-8.1
				c2.6,0,4.4,0.4,6.2,1v-0.4c0-3-1.8-4.6-5.4-4.6c-2.7,0-4.7,0.5-7,1.4l-1.8-5.5c2.8-1.2,5.5-2,9.8-2c7.9,0,11.3,4.1,11.3,10.9V372
				H544z M544.1,361.7c-1.2-0.6-2.8-0.9-4.6-0.9c-3.1,0-5,1.2-5,3.5v0.1c0,1.9,1.6,3.1,3.9,3.1c3.4,0,5.6-1.8,5.6-4.4V361.7z"/>
			<path class="st0" d="M573,353.6c-4.8,0-7.7,2.9-7.7,8.9v9.4h-7.2v-25.4h7.2v5.1c1.5-3.5,3.8-5.8,8.1-5.6v7.5H573z"/>
			<path class="st0" d="M578.9,343.8v-6.4h7.6v6.4H578.9z M579.1,372v-25.4h7.2V372H579.1z"/>
			<path class="st0" d="M602.9,372.4c-3.5,0-7.5-1.2-10.9-3.8l3.1-4.7c2.7,2,5.6,3,8,3c2.1,0,3-0.8,3-1.9v-0.1
				c0-1.6-2.5-2.1-5.3-2.9c-3.5-1-7.6-2.7-7.6-7.6v-0.1c0-5.2,4.2-8,9.3-8c3.2,0,6.7,1.1,9.5,2.9l-2.7,5c-2.5-1.5-5-2.4-6.9-2.4
				c-1.8,0-2.7,0.8-2.7,1.8v0.1c0,1.4,2.4,2.1,5.2,3c3.5,1.2,7.7,2.9,7.7,7.5v0.1C612.6,369.9,608.4,372.4,602.9,372.4z"/>
		</g>
	</g>
</g>
</svg>
