<?xml version="1.0" encoding="utf-8"?>
<!-- Generator: Adobe Illustrator 26.0.2, SVG Export Plug-In . SVG Version: 6.00 Build 0)  -->
<svg version="1.1" id="Calque_1" xmlns="http://www.w3.org/2000/svg" xmlns:xlink="http://www.w3.org/1999/xlink" x="0px" y="0px"
	 viewBox="0 0 1280 648.3" style="enable-background:new 0 0 1280 648.3;" xml:space="preserve">
<g>
	<g>
		<rect x="112.6" y="462.6" width="127" height="23.8"/>
	</g>
	<g>
		<path d="M114.3,160.9h7.6v60h37.7v7h-45.2V160.9z"/>
		<path d="M223.8,167.7H183v22.9h36.5v6.9H183v23.4h41.3v6.9h-48.9v-66.9h48.4V167.7z"/>
		<path d="M248,181.8c0.5,1.3,1.4,2.4,2.8,3.5c1.3,1.1,3.2,2,5.5,2.9c2.4,0.9,5.4,1.7,9.1,2.4c7.5,1.7,13,4,16.5,6.9
			c3.5,2.9,5.3,7,5.3,12.2c0,2.9-0.6,5.5-1.7,7.9c-1.1,2.4-2.7,4.4-4.7,6c-2,1.7-4.4,2.9-7.2,3.8c-2.8,0.9-5.9,1.3-9.2,1.3
			c-5.4,0-10.2-0.9-14.7-2.6c-4.4-1.7-8.7-4.4-12.7-8l4.7-5.5c3.5,3.2,7,5.6,10.6,7.1c3.6,1.6,7.7,2.3,12.3,2.3
			c4.5,0,8.1-1.1,10.9-3.2c2.7-2.1,4.1-4.9,4.1-8.3c0-1.6-0.3-3-0.8-4.3c-0.5-1.2-1.4-2.4-2.7-3.4c-1.3-1-3.1-1.9-5.3-2.8
			c-2.3-0.8-5.2-1.6-8.7-2.4c-3.8-0.8-7.2-1.8-10-2.9c-2.8-1.1-5.2-2.4-7-3.9c-1.9-1.5-3.2-3.3-4.1-5.4c-0.9-2-1.3-4.5-1.3-7.3
			c0-2.7,0.5-5.1,1.6-7.4c1.1-2.2,2.6-4.2,4.6-5.8c2-1.6,4.3-2.9,7-3.8c2.7-0.9,5.6-1.4,8.8-1.4c4.9,0,9.2,0.7,12.9,2
			c3.7,1.4,7.2,3.4,10.7,6.1l-4.4,5.8c-3.1-2.5-6.3-4.4-9.4-5.5c-3.2-1.1-6.5-1.7-9.9-1.7c-2.2,0-4.1,0.3-5.9,0.9
			c-1.8,0.6-3.3,1.3-4.5,2.3c-1.2,1-2.2,2.1-2.9,3.4c-0.7,1.3-1,2.8-1,4.3C247.2,179.1,247.5,180.5,248,181.8z"/>
		<path d="M153.5,328.8l-14.3-21.4h-11.6v21.4h-14.7v-66.9h30.6c15.8,0,25.2,8.3,25.2,22.1v0.2c0,10.8-5.8,17.6-14.3,20.7l16.4,23.9
			H153.5z M153.8,284.7c0-6.3-4.4-9.6-11.6-9.6h-14.6v19.2h14.9c7.2,0,11.3-3.8,11.3-9.5V284.7z"/>
		<path d="M183.9,328.8v-66.9h50.5V275h-35.9v13.6h31.6v13.1h-31.6v14.1h36.3v13.1H183.9z"/>
		<path d="M296.9,328.8l-32.4-42.6v42.6h-14.5v-66.9h13.6l31.4,41.2v-41.2h14.5v66.9H296.9z"/>
		<path d="M358.7,330c-19.7,0-34.3-15.2-34.3-34.4v-0.2c0-19,14.3-34.6,34.9-34.6c12.6,0,20.2,4.2,26.4,10.3l-9.4,10.8
			c-5.2-4.7-10.4-7.6-17.1-7.6c-11.3,0-19.4,9.4-19.4,20.8v0.2c0,11.5,7.9,21,19.4,21c7.6,0,12.3-3.1,17.6-7.8l9.4,9.5
			C379.3,325.4,371.7,330,358.7,330z"/>
		<path d="M430.5,330c-20.7,0-35.5-15.4-35.5-34.4v-0.2c0-19,15-34.6,35.7-34.6s35.5,15.4,35.5,34.4v0.2
			C466.1,314.4,451.1,330,430.5,330z M450.7,295.4c0-11.5-8.4-21-20.3-21s-20.1,9.4-20.1,20.8v0.2c0,11.5,8.4,21,20.3,21
			s20.1-9.4,20.1-20.8V295.4z"/>
		<path d="M528.1,328.8l-32.4-42.6v42.6h-14.5v-66.9h13.6l31.4,41.2v-41.2h14.5v66.9H528.1z"/>
		<path d="M588.9,275.5v53.4h-14.7v-53.4h-20.4v-13.6h55.5v13.6H588.9z"/>
		<path d="M663.1,328.8l-14.3-21.4h-11.6v21.4h-14.7v-66.9h30.6c15.8,0,25.2,8.3,25.2,22.1v0.2c0,10.8-5.8,17.6-14.3,20.7l16.4,23.9
			H663.1z M663.4,284.7c0-6.3-4.4-9.6-11.6-9.6h-14.6v19.2h14.9c7.2,0,11.3-3.8,11.3-9.5V284.7z"/>
		<path d="M693.5,328.8v-66.9H744V275h-35.9v13.6h31.6v13.1h-31.6v14.1h36.3v13.1H693.5z"/>
		<path d="M783.3,329.8c-10.1,0-20.4-3.5-28.4-10.7l8.7-10.4c6,5,12.3,8.1,20,8.1c6,0,9.7-2.4,9.7-6.3v-0.2c0-3.7-2.3-5.6-13.5-8.5
			c-13.5-3.4-22.2-7.2-22.2-20.5v-0.2c0-12.1,9.8-20.2,23.4-20.2c9.8,0,18.1,3.1,24.9,8.5l-7.6,11.1c-5.9-4.1-11.8-6.6-17.4-6.6
			c-5.6,0-8.6,2.6-8.6,5.8v0.2c0,4.4,2.9,5.8,14.4,8.8c13.6,3.5,21.2,8.4,21.2,20.1v0.2C807.9,322.3,797.8,329.8,783.3,329.8z"/>
		<path d="M170.6,409.5c-1.7,4.1-4.2,7.7-7.3,10.7c-3.2,3-6.9,5.4-11.3,7.1c-4.4,1.7-9.2,2.6-14.4,2.6h-23.2v-66.9h23.2
			c5.2,0,10,0.8,14.4,2.5c4.4,1.7,8.1,4,11.3,7c3.2,3,5.6,6.5,7.3,10.6s2.6,8.5,2.6,13.2C173.1,401,172.3,405.4,170.6,409.5z
			 M163.3,386.1c-1.3-3.2-3.2-6.1-5.5-8.5c-2.4-2.4-5.3-4.3-8.7-5.6c-3.4-1.4-7.3-2.1-11.5-2.1h-15.7v53h15.7c4.2,0,8-0.7,11.5-2
			c3.4-1.3,6.4-3.2,8.7-5.6c2.4-2.4,4.2-5.2,5.5-8.4c1.3-3.2,2-6.7,2-10.4C165.3,392.8,164.6,389.3,163.3,386.1z"/>
		<path d="M239.4,369.8h-40.8v22.9h36.5v6.9h-36.5V423h41.3v6.9H191v-66.9h48.4V369.8z"/>
		<path d="M287.6,362.9h7.6v60h37.7v7h-45.2V362.9z"/>
		<path d="M411.1,429.9h-8.1l-7.8-17.7h-36.4l-7.9,17.7H343l30.5-67.4h7.1L411.1,429.9z M376.9,371.3l-15.3,34.1h30.5L376.9,371.3z"
			/>
		<path d="M487.2,429.9h-31.8v-66.9h31.1c13.7,0,22.1,6.8,22.1,17.3v0.2c0,7.6-4,11.8-8.8,14.4c7.7,3,12.5,7.5,12.5,16.4v0.2
			C512.2,423.7,502.3,429.9,487.2,429.9z M493.9,382.7c0-4.4-3.4-6.9-9.7-6.9h-14.5V390h13.6c6.5,0,10.6-2.1,10.6-7.1V382.7z
			 M497.6,409.5c0-4.5-3.3-7.3-10.9-7.3h-17v14.7h17.5c6.5,0,10.4-2.3,10.4-7.3V409.5z"/>
		<path d="M527,429.9v-66.9h14.7v66.9H527z"/>
		<path d="M592.8,431c-20.7,0-35.5-15.4-35.5-34.4v-0.2c0-19,15-34.6,35.7-34.6s35.5,15.4,35.5,34.4v0.2
			C628.5,415.4,613.5,431,592.8,431z M613.1,396.4c0-11.5-8.4-21-20.3-21s-20.1,9.4-20.1,20.8v0.2c0,11.5,8.4,21,20.3,21
			s20.1-9.4,20.1-20.8V396.4z"/>
		<path d="M695.8,429.9v-43.7L677,414.7h-0.4L658,386.4v43.4h-14.4v-66.9h15.9l17.6,28.3l17.6-28.3h15.9v66.9H695.8z"/>
		<path d="M728.4,429.9v-66.9h50.5V376h-35.9v13.6h31.6v13.1h-31.6v14.1h36.3v13.1H728.4z M745.7,357.7l10.8-16.9l12.5,5.5
			l-12.2,11.5H745.7z"/>
		<path d="M820.5,429.9h-26.1v-66.9h26.1c21,0,35.6,14.4,35.6,33.3v0.2C856.1,415.2,841.6,429.9,820.5,429.9z M840.7,396.4
			c0-11.9-8.1-20.2-20.2-20.2h-11.4v40.4h11.4c12,0,20.2-8.1,20.2-20V396.4z"/>
		<path d="M871.1,429.9v-66.9h50.5V376h-35.9v13.6h31.6v13.1h-31.6v14.1h36.3v13.1H871.1z"/>
		<path d="M968.5,431c-19.7,0-34.3-15.2-34.3-34.4v-0.2c0-19,14.3-34.6,34.9-34.6c12.6,0,20.2,4.2,26.4,10.3l-9.4,10.8
			c-5.2-4.7-10.4-7.6-17.1-7.6c-11.3,0-19.4,9.4-19.4,20.8v0.2c0,11.5,7.9,21,19.4,21c7.6,0,12.3-3.1,17.6-7.8l9.4,9.5
			C989,426.4,981.4,431,968.5,431z"/>
		<path d="M1010.3,429.9v-66.9h14.7v66.9H1010.3z"/>
		<path d="M1090.6,429.9l-32.4-42.6v42.6h-14.5v-66.9h13.6l31.4,41.2v-41.2h14.5v66.9H1090.6z"/>
		<path d="M1121.1,429.9v-66.9h50.5V376h-35.9v13.6h31.6v13.1h-31.6v14.1h36.3v13.1H1121.1z"/>
	</g>
</g>
</svg>
