<?xml version="1.0" encoding="utf-8"?>
<!-- Generator: Adobe Illustrator 26.0.2, SVG Export Plug-In . SVG Version: 6.00 Build 0)  -->
<svg version="1.1" id="Calque_1" xmlns="http://www.w3.org/2000/svg" xmlns:xlink="http://www.w3.org/1999/xlink" x="0px" y="0px"
	 viewBox="0 0 747.7 420.1" style="enable-background:new 0 0 747.7 420.1;" xml:space="preserve">
<style type="text/css">
	.st0{fill:#FFFFFF;}
</style>
<g>
	<g>
		<path class="st0" d="M313.2,310.1c0,13-8,20.6-21.9,20.6h-12.1v-41.2h12.1C305.1,289.6,313.2,297.1,313.2,310.1z M283.4,293.5
			v33.2h7.7c11.4,0,17.7-6.1,17.7-16.7c0-10.5-6.4-16.6-17.7-16.6H283.4z"/>
		<path class="st0" d="M343.1,330.8h-3.8l-0.1-3.7c-1.8,2.1-4.7,4.3-9.4,4.3c-6.3,0-10-4.7-10-11.7v-16.9h4.1v16.8
			c0,4.7,2.6,8,6.8,8c4,0,6.2-2.1,8.3-4.9v-19.8h4.1V330.8z"/>
		<path class="st0" d="M389.3,330.8h-3.8l-0.1-3.8c-1.7,2.2-4.7,4.3-9.5,4.3c-7.7,0-13-6.1-13-14.6c0-8.4,5.3-14.6,13-14.6
			c4.7,0,7.6,2,9.3,4v-18.1h4.1V330.8z M367,316.7c0,6.4,4,10.9,9.5,10.9c4.3,0,6.8-2.1,8.7-5v-11.7c-1.9-2.9-4.4-5-8.7-5
			C371,305.9,367,310.4,367,316.7z"/>
		<path class="st0" d="M424,316.8c0,8.4-6,14.5-14.2,14.5c-8.2,0-14.1-6.1-14.1-14.5c0-8.4,5.9-14.6,14.1-14.6
			C418,302.2,424,308.4,424,316.8z M399.8,316.8c0,6.3,4.2,10.8,10,10.8s10-4.5,10-10.8c0-6.3-4.2-10.9-10-10.9
			S399.8,310.5,399.8,316.8z"/>
		<path class="st0" d="M454.1,314v16.8h-4v-16.5c0-4.8-2.9-8.1-7.5-8.1c-3.7,0-6.2,2.1-8.3,4.9v19.8h-4v-28h3.7l0.2,3.8
			c1.7-2.1,4.8-4.3,9.4-4.3C450.2,302.2,454.1,306.9,454.1,314z"/>
		<path class="st0" d="M495.6,306.4l0.1-3.7h3.8v28h-3.8l-0.1-3.8c-1.7,2.2-4.5,4.3-9.3,4.3c-7.6,0-12.8-6.1-12.8-14.6
			c0-8.4,5.2-14.6,12.8-14.6C491.1,302.2,493.9,304.3,495.6,306.4z M490.5,298.4h-4.4l-8.7-6.9h5.3L490.5,298.4z M477.6,316.7
			c0,6.4,3.8,10.9,9.3,10.9c4.2,0,6.6-2.1,8.5-5v-11.7c-1.9-2.9-4.3-5-8.5-5C481.4,305.9,477.6,310.4,477.6,316.7z"/>
		<path class="st0" d="M525.6,330.8h-4.1v-42.6h4.1V330.8z"/>
		<path class="st0" d="M554.1,306.4l0.1-3.7h3.8v28h-3.8l-0.1-3.8c-1.7,2.2-4.5,4.3-9.3,4.3c-7.6,0-12.8-6.1-12.8-14.6
			c0-8.4,5.2-14.6,12.8-14.6C549.5,302.2,552.4,304.3,554.1,306.4z M536.1,316.7c0,6.4,3.8,10.9,9.3,10.9c4.2,0,6.6-2.1,8.5-5v-11.7
			c-1.9-2.9-4.3-5-8.5-5C539.9,305.9,536.1,310.4,536.1,316.7z"/>
		<path class="st0" d="M590.3,331.3h-0.2l-13.9-28.6h4.3l9.8,20.6l9.8-20.6h4.2L590.3,331.3z"/>
		<path class="st0" d="M613.9,293.7c0,1.7-1.3,2.9-2.9,2.9c-1.7,0-3-1.2-3-2.9c0-1.7,1.3-3,3-3C612.7,290.7,613.9,292,613.9,293.7z
			 M613,330.8h-4v-28h4V330.8z"/>
		<path class="st0" d="M645.2,316.5v1.7h-21.8c0.3,5.9,3.8,9.5,9.9,9.5c4.1,0,7-1.8,8.5-4l2.7,2.2c-2.5,3.3-6.2,5.3-11.3,5.3
			c-8.7,0-14-6.1-14-14.5c0-8.4,5.4-14.6,13.2-14.6C640.7,302.2,645.2,308.6,645.2,316.5z M623.4,314.8h17.7c-0.2-5.3-3.3-9-8.6-9
			C627.3,305.8,623.7,309.4,623.4,314.8z"/>
		<path class="st0" d="M656.3,328.1c0,1.9-1.4,3.3-3.3,3.3c-1.9,0-3.3-1.3-3.3-3.3c0-1.9,1.3-3.3,3.3-3.3
			C654.9,324.8,656.3,326.2,656.3,328.1z"/>
	</g>
	<g>
		<path class="st0" d="M323.5,218.6h6.9v35.8h-6.9V218.6z M326.7,214.5c-2.5,0-4-2-4-4.3c0-2.3,1.5-4.4,4.1-4.4
			c2.7,0,4.1,2.1,4.1,4.4C331,212.5,329.4,214.5,326.7,214.5"/>
		<path class="st0" d="M460.3,201.9h-7.9c-0.9,3.3-3.9,8.8-5.8,11.7h4.9C454.6,210.7,458.7,204.8,460.3,201.9"/>
		<path class="st0" d="M584.3,218.6h7v35.7h-7V218.6z M587.7,214.5c-2.5,0-4-2-4-4.3c0-2.3,1.5-4.4,4.1-4.4c2.7,0,4.1,2.1,4.1,4.4
			C591.9,212.5,590.4,214.5,587.7,214.5"/>
		<path class="st0" d="M163,165.4h-26.1c-4,0-7.2-3.2-7.2-7.2v-4c0-4,3.2-7.2,7.2-7.2h104.8c6.6,0,12,5.4,12,12v104.5
			c0,6.6-5.4,12-12,12h-6.7c-6.6,0-12-5.4-12-12v-89.6c0,0,0.8-8.2-6.9-8.4h-43L163,165.4z"/>
		<path class="st0" d="M194.8,235.6h4.5c4,0,7.3,3.3,7.3,7.3v4.1c0,4-3.3,7.3-7.3,7.3h-26.1l-0.8,0H94.2c-6.6,0-12-5.4-12-12V103.7
			c0-6.6,5.4-12,12-12h6.7c6.6,0,12,5.4,12,12V229c0,0-0.7,5.6,6.4,6.7h73L194.8,235.6z"/>
	</g>
	<polygon class="st0" points="584.7,182.4 584.7,146 579.7,145.2 579.7,182.4 	"/>
	<g>
		<path class="st0" d="M279.5,188.1v65.5c2.4,1.2,7.6,2.1,12.4,2.1c15.4,0,25-9,25-25.1c0-13.2-9.1-21.3-18-21.9
			c-3.9-0.2-8.7,0.2-12.2,3h-0.1v-20.8C280.4,189.5,279.5,188.1,279.5,188.1 M309,230.9c0,9.2-4.1,18.5-15,18.5
			c-2.5,0-5.1-0.1-7.4-1V217c2.6-1.7,5.7-2.4,8.8-2.4C303.7,214.6,309,221.7,309,230.9"/>
		<path class="st0" d="M371.6,150.5c2.8,0,5.4,1.2,6.7,2.9c1.1,1.6,1.6,3.8,1.7,7.2H363C363.4,153.9,366.3,150.5,371.6,150.5
			 M382.7,149.2c-2.6-2.6-6.5-4-10.9-4c-4.8,0-8.8,1.7-12,5.1c-3.4,3.5-4.8,7.5-4.8,13.7c0,12.1,6.6,19.3,17.7,19.3
			c5.1,0,9.9-1.6,13.4-4.5l0.3-0.2l-0.2-0.3l-2.3-3.5l-0.3-0.4l-0.4,0.3c-2.7,2.2-5.6,3.2-9.3,3.2c-2.9,0-6.9-0.7-9.4-4.2
			c-1.2-1.7-1.7-4-1.7-7.5v-0.4h24.3v-1.2C387.2,155.8,386.2,152.4,382.7,149.2"/>
		<path class="st0" d="M395.3,155.5v26.8h6.8v-26.6c2.8-2.6,7.4-4.7,10.4-4.7c1.7,0,3.2,0.5,4,1.3c1,1,1.3,1.8,1.3,5.6v24.4h7V155
			c0-1.5-0.3-3-1-4.3c-1.6-3.3-5.5-5.4-9.9-5.4c-4.1,0-8,1.7-11.9,5c-0.1-1.7-0.5-3.1-1.4-4.8l-0.2-0.3l-0.3,0.1l-5.9,1.5l-0.5,0.1
			l0.2,0.5C395.2,150,395.3,150.7,395.3,155.5"/>
		<path class="st0" d="M460.1,178.3l0.3-0.3l-0.3-0.3l-3.4-3.6l-0.3-0.3l-0.3,0.3c-2.2,2.4-5,3.7-8,3.7c-7.6,0-9.2-6.5-9.2-11.9
			c0-5.2,0.7-9,2.1-11.4c1.3-2.3,4.1-3.8,7-3.8c2.8,0,4.2,0.6,7.2,2.8l0.3,0.2l0.3-0.3l3.4-3.9l0.3-0.3l-0.4-0.3
			c-2.6-2-5.6-3.9-10.9-3.9c-4.2,0-7.7,1.3-10.9,4.2c-4.1,3.6-6,8.5-6,15.4c0,5.4,1.2,9.3,3.8,12.9c2.8,3.7,7.1,5.5,12.8,5.5
			C452.9,183.1,456.5,181.7,460.1,178.3"/>
		<path class="st0" d="M480.5,150.5c2.8,0,5.4,1.2,6.7,2.9c1.1,1.6,1.6,3.8,1.7,7.2H472C472.4,153.9,475.2,150.5,480.5,150.5
			 M481.8,183.3c5.1,0,9.9-1.6,13.4-4.5l0.3-0.2l-0.2-0.3l-2.3-3.6l-0.3-0.4l-0.4,0.3c-2.7,2.2-5.6,3.2-9.3,3.2
			c-2.9,0-6.9-0.7-9.3-4.2c-1.2-1.7-1.7-4-1.7-7.5v-0.4h24.3v-1.2c-0.2-8.7-1.2-12.1-4.6-15.3c-2.6-2.6-6.5-4-10.9-4
			c-4.8,0-8.7,1.7-12,5.1c-3.4,3.5-4.8,7.5-4.8,13.7C464,176,470.7,183.3,481.8,183.3"/>
		<path class="st0" d="M530.4,175.5c-0.2,0.3-0.6,1-1.5,1.6c-1.6,1.2-2.9,1.5-5,1.5c-2,0-3-0.4-4.2-1.5c-1.5-1.5-2-3.2-2-7.5
			c0-3.4,0.4-5.1,1.7-6.9c1.1-1.6,2.7-2.4,4.8-2.4c3,0,4.9,0.7,6.2,2.3V175.5z M535.8,180.1l0-0.2c-0.2-1.1-0.3-3.5-0.3-6v-28.1
			l-0.4,0l-4.3-0.7l-0.5-0.1V156c0,1,0,2,0,2.8c-1.8-1.6-4.2-2.5-7-2.5c-2,0-3.6,0.5-5.5,1.7c-3.9,2.4-5.8,6.4-5.8,11.9
			c0,8.1,4.3,13,11.6,13c2.2,0,4.2-0.5,5.6-1.4c0.5-0.3,0.9-0.6,1.3-1c0.1,0.7,0.2,1.1,0.5,1.8l0.1,0.3h5.3l-0.2-0.6
			C536,181.1,536,180.8,535.8,180.1"/>
		<path class="st0" d="M552.7,160c1.9,0,3.7,0.8,4.6,2c0.7,1.1,1.1,2.6,1.2,4.9h-11.6C547.1,162.3,549.1,160,552.7,160 M553.6,183
			c3.6,0,7-1.1,9.5-3.2l0.3-0.2l-0.2-0.3l-1.6-2.5l-0.3-0.4l-0.4,0.3c-1.8,1.5-3.9,2.2-6.4,2.2c-2,0-4.8-0.5-6.5-2.9
			c-0.8-1.1-1.2-2.7-1.2-5.2v-0.2h17v-1c-0.1-6.1-0.8-8.5-3.2-10.8c-1.9-1.8-4.6-2.9-7.7-2.9c-3.4,0-6.2,1.2-8.5,3.6
			c-2.4,2.5-3.4,5.3-3.4,9.7C541,177.7,545.8,183,553.6,183"/>
		<path class="st0" d="M362.3,245.1c-1.3,3.2-4.1,5-8,5c-3.2,0-6.2-1.3-7.5-3.3c-1.4-2.1-2.3-6.5-2.3-11.3c0-4,0.6-6.8,1.8-9
			c1.3-2.1,4.4-3.6,7.6-3.6c2.7,0,6.2,1.1,7.9,4.3c1.2,2.3,1.7,5.5,1.7,10.4C363.4,241,363.1,242.9,362.3,245.1 M353.9,217.4
			c-10.5,0-17,7.2-17,18.9c0,11.9,6.6,19.2,17.2,19.2c4.5,0,7.8-1,10.9-3.5c4.4-3.5,6.2-7.9,6.2-14.9c0-5.8-1.2-10.1-3.7-13.4
			C364.4,219.6,359.8,217.4,353.9,217.4"/>
		<path class="st0" d="M417.1,217.3c-3.9,0-8.5,2.1-12.3,5.6c-0.4-0.8-0.7-1.3-1.1-1.9c-1.8-2.3-4.9-3.7-8.1-3.7
			c-2.2,0-4.2,0.6-6.8,2c-1.9,1-2.7,1.6-4.1,2.8c-0.1-1.4-0.7-3.1-1.4-4.5l-0.2-0.3l-0.3,0.1l-5.9,1.3l-0.5,0.1l0.2,0.5
			c1.2,2.8,1.4,3.5,1.4,8.4v26.7h6.7v-26.6c3.9-3.1,6.6-4.4,9.5-4.4c1.7,0,2.8,0.4,3.7,1.3c0.9,0.9,1,1.2,1,4.2v25.5h7v-26l0.5-0.4
			c1.3-1.1,2.6-2.1,3.9-2.9c1.8-1.2,3.7-1.8,5.4-1.8c3,0,4.5,1.6,4.5,4.7v26.5h7.1v-27.1C427.3,221.4,423.1,217.3,417.1,217.3"/>
		<path class="st0" d="M450.4,222.5c2.8,0,5.4,1.2,6.6,2.9c1.1,1.6,1.6,3.7,1.7,7.2h-16.8C442.3,225.9,445.2,222.5,450.4,222.5
			 M461.5,221.3c-2.6-2.6-6.5-4-10.8-4c-4.8,0-8.7,1.7-11.9,5.1c-3.4,3.5-4.8,7.5-4.8,13.6c0,12,6.6,19.2,17.7,19.2
			c5.1,0,9.9-1.6,13.4-4.5l0.3-0.3l-0.2-0.3l-2.3-3.5l-0.3-0.4l-0.4,0.3c-2.6,2.2-5.6,3.2-9.2,3.2c-2.9,0-6.9-0.7-9.3-4.1
			c-1.2-1.6-1.7-4-1.7-7.5v-0.4h24.2v-1.2C466,227.8,464.9,224.4,461.5,221.3"/>
		<path class="st0" d="M497.7,244.8c-0.3,0.5-0.9,1.4-2.1,2.3c-2.4,1.7-4.1,2.2-7.2,2.2c-2.8,0-4.4-0.6-6-2.2
			c-2.2-2.2-2.9-4.7-2.9-10.7c0-4.8,0.6-7.3,2.4-9.9c1.5-2.3,4-3.5,6.9-3.5c4.3,0,7.1,1.1,9,3.4V244.8z M505.1,251.2l-0.1-0.2
			c-0.2-1.5-0.4-4.9-0.4-8.5v-39.8l-0.4-0.1l-6.1-0.9l-0.5-0.1V217c0,1.5,0,3.2,0.1,4.3c-2.5-2.4-6.1-3.8-10-3.8
			c-2.8,0-5.1,0.7-7.7,2.3c-5.5,3.4-8.2,9.1-8.2,16.7c0,11.6,5.9,18.3,16.3,18.3c3.2,0,5.9-0.7,7.9-2c0.8-0.5,1.3-0.9,2.1-1.6
			c0.2,1.1,0.3,1.7,0.8,2.9l0.1,0.3h7.2l-0.3-0.6C505.4,252.8,505.3,252.3,505.1,251.2"/>
		<path class="st0" d="M527.8,222.5c2.8,0,5.4,1.2,6.6,2.9c1.1,1.6,1.6,3.7,1.7,7.2h-16.8C519.7,225.9,522.5,222.5,527.8,222.5
			 M538.9,221.3c-2.6-2.6-6.4-4-10.8-4c-4.8,0-8.7,1.7-11.9,5.1c-3.4,3.5-4.8,7.5-4.8,13.6c0,12,6.6,19.2,17.7,19.2
			c5.1,0,9.9-1.6,13.4-4.5l0.3-0.3l-0.2-0.3l-2.3-3.5l-0.3-0.4l-0.4,0.3c-2.7,2.2-5.6,3.2-9.2,3.2c-2.9,0-6.8-0.7-9.3-4.1
			c-1.2-1.6-1.7-3.9-1.7-7.5v-0.4h24.2v-1.2C543.3,227.8,542.3,224.4,538.9,221.3"/>
		<path class="st0" d="M575,246.2l-0.3-0.3l-0.3,0.3c-2.2,2.4-5,3.7-8,3.7c-7.6,0-9.1-6.4-9.1-11.8c0-5.2,0.7-9,2.1-11.3
			c1.3-2.3,4.1-3.7,6.9-3.7c2.7,0,4.2,0.6,7.1,2.7l0.3,0.3l0.3-0.3l3.3-3.8l0.3-0.4l-0.4-0.3c-2.6-2-5.6-3.9-10.9-3.9
			c-4.2,0-7.6,1.4-10.8,4.2c-4.1,3.6-6,8.5-6,15.3c0,5.3,1.2,9.3,3.8,12.8c2.8,3.6,7.1,5.5,12.7,5.5c5,0,8.5-1.4,12.1-4.8l0.3-0.3
			l-0.3-0.3L575,246.2z"/>
		<path class="st0" d="M618,217.4c-4.1,0-7.9,1.6-11.8,5c-0.1-1.6-0.5-3-1.4-4.8l-0.2-0.3l-0.3,0.1l-6.5,1.6l0.3,0.5
			c1.3,2.6,1.4,3.4,1.4,8.2v26.7h6.8v-26.5c2.8-2.6,7.4-4.7,10.3-4.7c1.7,0,3.2,0.5,4,1.3c1,1,1.3,1.7,1.3,5.6v24.3h7v-27.2
			c0-1.5-0.3-3-1-4.3C626.3,219.6,622.4,217.4,618,217.4"/>
		<path class="st0" d="M651.5,222.5c2.8,0,5.4,1.2,6.6,2.9c1.1,1.6,1.6,3.7,1.7,7.2H643C643.4,225.9,646.3,222.5,651.5,222.5
			 M662.6,221.3c-2.6-2.6-6.5-4-10.8-4c-4.8,0-8.7,1.7-11.9,5.1c-3.4,3.5-4.8,7.5-4.8,13.6c0,12,6.6,19.2,17.7,19.2
			c5.1,0,9.9-1.6,13.4-4.5l0.3-0.3l-0.2-0.3l-2.3-3.5l-0.3-0.4l-0.4,0.3c-2.7,2.2-5.6,3.2-9.2,3.2c-2.9,0-6.9-0.7-9.3-4.1
			c-1.2-1.6-1.7-3.9-1.7-7.5v-0.4h24.2v-1.2C667,227.8,666,224.4,662.6,221.3"/>
		<path class="st0" d="M287.5,167.1c2-1.9,5.4-2.7,11-2.7c0.7,0,1.3,0,2,0.1l0.6,0l-0.1,8.6c-1.8,3.2-5.7,4.9-9.3,4.9
			c-2.9,0-6.3-1.4-6.3-5.5C285.4,170.2,286.1,168.5,287.5,167.1 M301.5,179.3c0.2,1.2,0.3,1.7,0.8,2.8l0.1,0.3h7.3l-0.3-0.6
			c-0.4-1-0.5-1.5-0.7-2.5l0-0.2c-0.2-1.5-0.4-5-0.4-8.6v-10.8l0-0.5v-1.8c0-3.4-0.2-4.7-0.9-6.3c-1.7-3.8-5.6-5.8-11.3-5.8
			c-5.8,0-11.4,1.6-16.7,4.9l-0.4,0.2l0.3,0.4l3.1,4l0.3,0.3l0.3-0.2c1.8-1.3,2.6-1.8,4.9-2.6c2.7-1.1,5.1-1.6,7.4-1.6
			c2.3,0,3.7,0.5,5,1.8c1,1,1.1,2.2,1.1,5.3v2c-1,0-1.5,0-2.3,0c-13.5,0-21.2,4.8-21.2,13.3c0,2.4,1,5.4,3.3,7.4
			c1.8,1.6,4.3,3,9.7,3c4.2,0,7-0.8,10.6-3.9L301.5,179.3z"/>
		<path class="st0" d="M596.3,171.7c1.4-1.3,3.8-1.9,7.7-1.9c0.5,0,0.9,0,1.4,0.1l0.5,0l0,6c-1.2,2.3-4,3.4-6.5,3.4
			c-2.1,0-4.5-1-4.5-3.9C594.8,173.8,595.3,172.6,596.3,171.7 M606.1,180.2c0.1,0.8,0.2,1.2,0.5,2l0.1,0.2h5.1l-0.2-0.4
			c-0.3-0.7-0.4-1.1-0.5-1.8l0-0.2c-0.2-1.1-0.3-3.5-0.3-6v-8v-1.3c0-2.4-0.1-3.3-0.6-4.4c-1.2-2.7-4-4.1-8-4.1
			c-4.1,0-8,1.1-11.8,3.4l-0.3,0.2l0.2,0.3l2.2,2.8l0.2,0.2l0.2-0.2c1.3-0.9,1.8-1.2,3.4-1.8c1.9-0.7,3.6-1.1,5.2-1.1
			c1.6,0,2.6,0.4,3.5,1.3c0.7,0.7,0.8,1.5,0.8,3.7v1.4c-0.7,0-1,0-1.6,0c-9.5,0-15,3.4-15,9.4c0,1.7,0.7,3.8,2.3,5.2
			c1.3,1.1,3,2.1,6.9,2.1C601.6,183.1,603.5,182.5,606.1,180.2L606.1,180.2z"/>
		<path class="st0" d="M340.9,180.1v2.9c0,4.5,0,11.5-11.5,11.5c-4.8,0-8.9-1-11.3-2.1v6.5c1.7,0.4,6,1.4,12.1,1.4
			c11.7,0,17.7-4.7,17.7-15.7v-26.8l0-0.1c0-3.5,0.1-6.8,0.4-8.3l0-0.2c0.2-1,0.3-1.5,0.7-2.5l0.2-0.6h-7.1l-0.1,0.3
			c-0.5,1.1-0.6,1.7-0.8,2.8c-2.4-2.4-6.2-3.9-10.2-3.9c-2.8,0-5,0.7-7.6,2.3c-5.4,3.4-8.1,9.6-8.1,17.2c0,11.5,5.9,18.6,16.1,18.6
			c3.1,0,5.8-0.7,7.8-2C339.8,181,340.3,180.6,340.9,180.1L340.9,180.1z M340.9,173.4c-0.3,0.5-0.8,1.4-2.1,2.3
			c-2.3,1.7-4.1,2.2-7.1,2.2c-2.8,0-4.4-0.5-5.9-2.1c-2.2-2.1-2.9-5.1-2.9-11.1c0-4.8,0.6-7.9,2.4-10.5c1.5-2.2,3.9-3.5,6.8-3.5
			c4.3,0,7,1.1,8.9,3.4V173.4z"/>
	</g>
</g>
</svg>
